<?xml version="1.0" encoding="iso-8859-1"?>
<!-- Generator: Adobe Illustrator 19.0.0, SVG Export Plug-In . SVG Version: 6.00 Build 0)  -->
<svg version="1.1" id="Layer_1" xmlns="http://www.w3.org/2000/svg" xmlns:xlink="http://www.w3.org/1999/xlink" x="0px" y="0px"
	 viewBox="0 0 512 512" style="enable-background:new 0 0 512 512;" xml:space="preserve">
<g>
	<polygon style="fill:#CEE8FA;" points="453.842,287.63 444.181,363.98 67.819,363.98 58.158,287.63 	"/>
	<circle style="fill:#CEE8FA;" cx="178.09" cy="199.479" r="35.062"/>
	<circle style="fill:#CEE8FA;" cx="333.904" cy="199.479" r="35.062"/>
</g>
<path style="fill:#2D527C;" d="M498.556,186.034h-60.24c-7.424,0-13.444,6.019-13.444,13.444s6.02,13.444,13.444,13.444h11.109
	l-7.484,61.265H70.058l-7.483-61.265h68.924c5.844,20.224,24.512,35.059,46.592,35.059s40.748-14.837,46.592-35.059h62.632
	c5.844,20.224,24.512,35.059,46.592,35.059c26.745,0,48.503-21.759,48.503-48.503c0-23.196-16.371-42.63-38.163-47.381
	l-39.049-94.249c-2.839-6.859-10.709-10.115-17.564-7.274c-6.86,2.842-10.116,10.705-7.274,17.566l35.731,86.242
	c-13.858,5.494-24.595,17.192-28.775,31.653h-62.632c-4.18-14.463-14.917-26.159-28.775-31.653l35.731-86.242
	c2.842-6.86-0.415-14.724-7.274-17.566c-6.862-2.843-14.724,0.415-17.564,7.274l-39.049,94.249
	c-17.41,3.797-31.347,16.966-36.253,33.938H13.444C6.02,186.034,0,192.053,0,199.478s6.02,13.444,13.444,13.444h22.045L65.248,450.7
	c0.851,6.718,6.566,11.755,13.338,11.755h354.828c6.772,0,12.487-5.037,13.338-11.755l29.759-237.778h22.045
	c7.424,0,13.444-6.019,13.444-13.444S505.98,186.034,498.556,186.034z M333.518,177.882c0.444,0.044,0.887,0.098,1.336,0.098
	c0.235,0,0.472-0.022,0.708-0.035c11.146,0.851,19.96,10.17,19.96,21.532c0,11.919-9.697,21.615-21.615,21.615
	s-21.615-9.696-21.615-21.615C312.293,187.69,321.782,178.093,333.518,177.882z M176.437,177.946
	c0.237,0.012,0.473,0.035,0.708,0.035c0.449,0,0.893-0.054,1.336-0.098c11.738,0.211,21.225,9.807,21.225,21.595
	c0,11.919-9.697,21.615-21.615,21.615s-21.615-9.696-21.615-21.615C156.477,188.118,165.29,178.797,176.437,177.946z M73.41,301.074
	h365.179l-6.261,49.463H79.671L73.41,301.074z M90.435,435.568l-7.36-58.143h345.85l-7.359,58.143H90.435z"/>
<g>
</g>
<g>
</g>
<g>
</g>
<g>
</g>
<g>
</g>
<g>
</g>
<g>
</g>
<g>
</g>
<g>
</g>
<g>
</g>
<g>
</g>
<g>
</g>
<g>
</g>
<g>
</g>
<g>
</g>
</svg>
